<svg width="29" height="29" viewBox="0 0 29 29" fill="none" xmlns="http://www.w3.org/2000/svg">
<path d="M1.58301 8.04134L7.27926 2.34509C7.51958 2.10333 7.80538 1.91153 8.12017 1.78073C8.43497 1.64994 8.77254 1.58274 9.11342 1.58301H19.8859C20.2268 1.58274 20.5644 1.64994 20.8792 1.78073C21.194 1.91153 21.4798 2.10333 21.7201 2.34509L27.4163 8.04134M4.16634 14.4997V24.833C4.16634 25.5182 4.43851 26.1752 4.92298 26.6597C5.40745 27.1442 6.06453 27.4163 6.74967 27.4163H22.2497C22.9348 27.4163 23.5919 27.1442 24.0764 26.6597C24.5608 26.1752 24.833 25.5182 24.833 24.833V14.4997" stroke="#8C8C8C" stroke-width="2.58333" stroke-linecap="round" stroke-linejoin="round"/>
<path d="M18.3747 27.416V22.2493C18.3747 21.5642 18.1025 20.9071 17.618 20.4227C17.1336 19.9382 16.4765 19.666 15.7913 19.666H13.208C12.5229 19.666 11.8658 19.9382 11.3813 20.4227C10.8968 20.9071 10.6247 21.5642 10.6247 22.2493V27.416M1.58301 8.04102H27.4163V11.916C27.4163 12.6012 27.1442 13.2582 26.6597 13.7427C26.1752 14.2272 25.5182 14.4993 24.833 14.4993C24.0783 14.4578 23.3576 14.1722 22.7793 13.6856C22.6251 13.5742 22.4398 13.5143 22.2497 13.5143C22.0595 13.5143 21.8742 13.5742 21.7201 13.6856C21.1418 14.1722 20.421 14.4578 19.6663 14.4993C18.9117 14.4578 18.1909 14.1722 17.6126 13.6856C17.4585 13.5742 17.2732 13.5143 17.083 13.5143C16.8929 13.5143 16.7075 13.5742 16.5534 13.6856C15.9751 14.1722 15.2544 14.4578 14.4997 14.4993C13.745 14.4578 13.0242 14.1722 12.4459 13.6856C12.2918 13.5742 12.1065 13.5143 11.9163 13.5143C11.7262 13.5143 11.5409 13.5742 11.3868 13.6856C10.8084 14.1722 10.0877 14.4578 9.33301 14.4993C8.57833 14.4578 7.85758 14.1722 7.27926 13.6856C7.12514 13.5742 6.93983 13.5143 6.74967 13.5143C6.55952 13.5143 6.37421 13.5742 6.22009 13.6856C5.64177 14.1722 4.92102 14.4578 4.16634 14.4993C3.4812 14.4993 2.82412 14.2272 2.33965 13.7427C1.85518 13.2582 1.58301 12.6012 1.58301 11.916V8.04102Z" stroke="#8C8C8C" stroke-width="2.58333" stroke-linecap="round" stroke-linejoin="round"/>
</svg>
