<svg width="29" height="28" viewBox="0 0 29 28" fill="none" xmlns="http://www.w3.org/2000/svg">
<path d="M4.9375 6.03125C4.9375 4.48139 5.55318 2.99501 6.6491 1.89909C7.74501 0.803179 9.23139 0.1875 10.7812 0.1875C12.3311 0.1875 13.8175 0.803179 14.9134 1.89909C16.0093 2.99501 16.625 4.48139 16.625 6.03125C16.625 7.58111 16.0093 9.06749 14.9134 10.1634C13.8175 11.2593 12.3311 11.875 10.7812 11.875C9.23139 11.875 7.74501 11.2593 6.6491 10.1634C5.55318 9.06749 4.9375 7.58111 4.9375 6.03125ZM0.6875 24.0938C0.6875 21.4167 1.75095 18.8493 3.64389 16.9564C5.53684 15.0634 8.10422 14 10.7812 14C13.4583 14 16.0257 15.0634 17.9186 16.9564C19.8116 18.8493 20.875 21.4167 20.875 24.0938V24.098L20.8736 24.2666C20.8706 24.4467 20.8218 24.6232 20.7318 24.7793C20.6419 24.9354 20.5137 25.0661 20.3593 25.1591C17.4681 26.8999 14.1561 27.8174 10.7812 27.8125C7.27925 27.8125 4.00108 26.8435 1.20458 25.1591C1.04996 25.0663 0.921487 24.9357 0.831273 24.7796C0.741059 24.6234 0.692069 24.4469 0.688917 24.2666L0.6875 24.0938ZM24.0625 7.625C24.0625 7.34321 23.9506 7.07296 23.7513 6.8737C23.552 6.67444 23.2818 6.5625 23 6.5625C22.7182 6.5625 22.448 6.67444 22.2487 6.8737C22.0494 7.07296 21.9375 7.34321 21.9375 7.625V10.8125H18.75C18.4682 10.8125 18.198 10.9244 17.9987 11.1237C17.7994 11.323 17.6875 11.5932 17.6875 11.875C17.6875 12.1568 17.7994 12.427 17.9987 12.6263C18.198 12.8256 18.4682 12.9375 18.75 12.9375H21.9375V16.125C21.9375 16.4068 22.0494 16.677 22.2487 16.8763C22.448 17.0756 22.7182 17.1875 23 17.1875C23.2818 17.1875 23.552 17.0756 23.7513 16.8763C23.9506 16.677 24.0625 16.4068 24.0625 16.125V12.9375H27.25C27.5318 12.9375 27.802 12.8256 28.0013 12.6263C28.2006 12.427 28.3125 12.1568 28.3125 11.875C28.3125 11.5932 28.2006 11.323 28.0013 11.1237C27.802 10.9244 27.5318 10.8125 27.25 10.8125H24.0625V7.625Z" fill="#8C8C8C"/>
</svg>
