<svg width="25" height="25" viewBox="0 0 25 25" fill="none" xmlns="http://www.w3.org/2000/svg">
<path d="M23.9546 23.9448L24.5015 1.77356C24.5065 1.57304 24.4681 1.36977 24.3889 1.17754C24.3096 0.985309 24.1914 0.808599 24.0422 0.659384C23.893 0.510168 23.7163 0.391933 23.524 0.312693C23.3318 0.233452 23.1285 0.195055 22.928 0.200105L0.75999 0.750265C0.693089 0.751841 0.629835 0.772738 0.577763 0.810467C0.525691 0.848197 0.486995 0.901169 0.466285 0.963072C0.445575 1.02498 0.443722 1.0932 0.460949 1.15963C0.478176 1.22605 0.513754 1.28787 0.563449 1.33773L3.20216 3.97644C3.35201 4.12629 3.55474 4.21023 3.75967 4.20728L18.3832 3.84576L1.66088 20.5681C1.53021 20.6988 1.54058 20.923 1.68392 21.0663L3.63851 23.0209C3.78185 23.1643 4.00604 23.1746 4.1367 23.044L20.8591 6.32159L20.4976 20.9452C20.4913 21.1468 20.5753 21.3496 20.7284 21.5027L23.3671 24.1414C23.5886 24.3629 23.9467 24.2459 23.9546 23.9448Z" fill="#B7DFFF"/>
</svg>
